<svg width="16" height="16" viewBox="0 0 16 16" fill="none" xmlns="http://www.w3.org/2000/svg">
<path d="M4.46001 8.52005C4.38826 8.45447 4.33096 8.37465 4.29175 8.2857C4.25255 8.19674 4.2323 8.1006 4.2323 8.00339C4.2323 7.90618 4.25255 7.81003 4.29175 7.72108C4.33096 7.63212 4.38826 7.55231 4.46001 7.48672L9.69335 2.22672C9.76218 2.15469 9.84498 2.09744 9.93667 2.05847C10.0284 2.0195 10.127 1.99962 10.2267 2.00005C10.3264 1.99883 10.4253 2.01834 10.5172 2.05736C10.609 2.09638 10.6917 2.15405 10.76 2.22672L11.54 3.00672C11.6114 3.07603 11.6683 3.15891 11.7072 3.2505C11.7461 3.34209 11.7663 3.44054 11.7667 3.54005C11.7661 3.63756 11.7457 3.73393 11.7067 3.82332C11.6678 3.9127 11.611 3.99324 11.54 4.06005L7.57334 8.06005L11.54 11.9601C11.6107 12.0271 11.6672 12.1077 11.7062 12.197C11.7451 12.2864 11.7657 12.3826 11.7667 12.4801C11.765 12.5774 11.744 12.6734 11.7051 12.7626C11.6663 12.8519 11.6101 12.9325 11.54 13.0001L10.76 13.7934C10.6917 13.8661 10.609 13.9237 10.5172 13.9627C10.4253 14.0018 10.3264 14.0213 10.2267 14.0201C10.127 14.0205 10.0284 14.0006 9.93667 13.9616C9.84498 13.9227 9.76218 13.8654 9.69335 13.7934L4.46001 8.52005Z" fill="white" fill-opacity="0.5"/>
</svg>
